<?xml version="1.0" encoding="utf-8"?>
<!-- Generator: Adobe Illustrator 26.2.1, SVG Export Plug-In . SVG Version: 6.00 Build 0)  -->
<svg version="1.1" id="Camada_1" xmlns="http://www.w3.org/2000/svg" xmlns:xlink="http://www.w3.org/1999/xlink" x="0px" y="0px"
	 viewBox="0 0 154 26" style="enable-background:new 0 0 154 26;" xml:space="preserve">
<style type="text/css">
	.st0{fill:#009ECF;}
	.st1{fill:#00466E;}
</style>
<g>
	<path class="st0" d="M33.2,7.1c-0.7,1.3-1,3.4-0.9,5.9c0.1-1.6,0.4-3.1,1-4.1C36.6,3.6,49.2,6.2,58.9,9c0.1,0,0.2,0,0.2,0
		C56,7.4,51.7,5.5,48.5,4.8C40.3,2.9,34.8,3.9,33.2,7.1z"/>
	<path class="st1" d="M59.1,8c-0.9-0.6-1.7-1-1.8-1c-2.6-1.4-6-3.1-10.6-4.4c-3-0.8-5.7-1.2-8.1-1c-4.1,0.2-7.6,1.9-8.6,4.5
		c-3,7.8,3.1,16.9,3.4,17.3c-0.5-1.4-1.1-3.6-1.4-5.1c-1-5.8-4.8-18.8,16-14.1c3.4,0.8,7.7,2.7,11,4.4c0,0,0,0,0,0
		C59.1,8.4,59.1,8,59.1,8z"/>
	<g>
		<g>
			<path class="st1" d="M46,19.6c0,0.8-0.1,1.6-0.4,2.2c-0.3,0.6-0.6,1.1-1.1,1.5c-0.5,0.4-1.1,0.7-1.8,0.9
				c-0.7,0.2-1.5,0.3-2.4,0.3c-2,0-3.7-0.4-5.2-1.1c0.4-1,0.7-2,1-2.8c0-0.1,0.1-0.3,0.1-0.4l1.5,0.4c0.2,0,0.4,0.1,0.6,0.1
				c0.2,0,0.4,0.1,0.6,0.1c0.2,0,0.4,0.1,0.6,0.1c0.2,0,0.4,0,0.5,0c0.2,0,0.4,0,0.7,0c0.2,0,0.4-0.1,0.6-0.1
				c0.2-0.1,0.3-0.1,0.4-0.3c0.1-0.1,0.1-0.3,0.1-0.5c0-0.2-0.1-0.4-0.3-0.6c-0.2-0.2-0.5-0.3-0.8-0.4c-0.3-0.1-0.7-0.2-1.1-0.3
				c-0.4-0.1-0.8-0.2-1.1-0.3c-0.5-0.1-0.9-0.4-1.3-0.6c-0.4-0.3-0.8-0.6-1.1-0.9c-0.3-0.4-0.5-0.8-0.7-1.2
				c-0.2-0.4-0.3-0.9-0.3-1.5c0-3.1,1.8-4.6,5.5-4.6c1.7,0,3.4,0.4,4.9,1.1l-1.1,3.1c-0.7-0.2-1.2-0.3-1.5-0.4
				c-0.4-0.1-0.7-0.2-0.9-0.2c-0.2,0-0.4-0.1-0.5-0.1c-0.1,0-0.3,0-0.4,0h-0.3c-0.1,0-0.1,0-0.2,0c-0.1,0-0.1,0-0.1,0
				c-0.3,0-0.5,0-0.7,0.1c-0.2,0.1-0.2,0.3-0.2,0.6c0,0.4,0.4,0.7,1.1,1c1.8,0.4,3.2,1,4.1,1.8C45.5,17.4,46,18.4,46,19.6"/>
		</g>
	</g>
	<g>
		<g>
			<path class="st1" d="M57.4,13.9c-1.2-0.4-2.1-0.6-2.8-0.6c-0.5,0-1,0.1-1.3,0.3c-0.4,0.2-0.7,0.5-1,0.8c-0.3,0.3-0.5,0.7-0.6,1.2
				c-0.1,0.4-0.2,0.9-0.2,1.4c0,0.5,0.1,1,0.2,1.5c0.2,0.5,0.4,0.9,0.6,1.2c0.3,0.3,0.6,0.6,1,0.8c0.4,0.2,0.8,0.3,1.3,0.3
				c0.2,0,0.5,0,0.8-0.1v-3.4l3.6-0.4v6.5c-1.6,0.7-3.3,1.1-5,1.1c-2,0-3.7-0.7-5.1-2.2c-1.4-1.5-2.1-3.3-2.1-5.3
				c0-2,0.7-3.8,2.1-5.2c1.4-1.4,3.1-2.1,5-2.1c1.8,0,3.4,0.3,4.8,1L57.4,13.9z"/>
		</g>
	</g>
	<g>
		<g>
			<g>
				<path class="st1" d="M63.2,21.6c0.7,0.4,1.9,0.8,3,0.8c1.3,0,2.1-0.4,2.1-1.3c0-1.6-5.6-0.4-5.6-3.8c0-2,1.9-2.4,3.3-2.4h0.1
					c1.2,0,2.8,0.2,3.6,0.6l-0.5,1.4c-0.8-0.4-2.4-0.5-3.2-0.5c-0.8,0-1.9,0.3-1.9,1.1c0,1.8,5.6,0.7,5.6,3.8c0,2.3-2.1,2.6-3.5,2.6
					c-1.3,0-2.9-0.4-3.7-0.9L63.2,21.6z"/>
			</g>
			<g>
				<rect x="71.4" y="14.9" class="st1" width="1.4" height="8.7"/>
			</g>
			<g>
				<path class="st1" d="M75,21.6c0.7,0.4,1.9,0.8,3,0.8c1.3,0,2.1-0.4,2.1-1.3c0-1.6-5.6-0.4-5.6-3.8c0-2,1.9-2.4,3.3-2.4h0.1
					c1.2,0,2.8,0.2,3.6,0.6L81,16.7c-0.8-0.4-2.4-0.5-3.2-0.5c-0.8,0-1.9,0.3-1.9,1.1c0,1.8,5.6,0.7,5.6,3.8c0,2.3-2.1,2.6-3.5,2.6
					c-1.3,0-2.9-0.4-3.7-0.9L75,21.6z"/>
			</g>
			<g>
				<polygon class="st1" points="89.3,16.3 86.6,16.3 86.6,23.6 85.2,23.6 85.2,16.3 82.5,16.3 82.5,14.9 89.3,14.9 				"/>
			</g>
			<g>
				<polygon class="st1" points="96.6,23.6 90.6,23.6 90.6,14.9 96.6,14.9 96.6,16.3 92,16.3 92,18.7 96.2,18.7 96.2,20.1 92,20.1 
					92,22.3 96.6,22.3 				"/>
			</g>
			<g>
				<polygon class="st1" points="102.2,23.2 99.7,17.8 99.7,23.6 98.3,23.6 98.3,14.9 99.9,14.9 102.8,21.2 105.7,14.9 107.4,14.9 
					107.4,23.6 105.9,23.6 105.9,17.8 103.5,23.2 				"/>
			</g>
			<g>
				<path class="st1" d="M113.5,14.9l3.2,8.7h-1.5l-1-2.7h-3.3l-1,2.7h-1.5l3.2-8.7H113.5z M111.4,19.5h2.3l-1.1-3.1L111.4,19.5z"/>
			</g>
			<g>
				<path class="st1" d="M118.2,21.6c0.7,0.4,1.9,0.8,3,0.8c1.3,0,2.1-0.4,2.1-1.3c0-1.6-5.6-0.4-5.6-3.8c0-2,1.9-2.4,3.3-2.4h0.1
					c1.2,0,2.8,0.2,3.6,0.6l-0.5,1.4c-0.8-0.4-2.4-0.5-3.2-0.5c-0.8,0-1.9,0.3-1.9,1.1c0,1.8,5.6,0.7,5.6,3.8c0,2.3-2.1,2.6-3.5,2.6
					c-1.3,0-2.9-0.4-3.7-0.9L118.2,21.6z"/>
			</g>
		</g>
	</g>
</g>
</svg>
