<?xml version="1.0" encoding="utf-8"?>
<!-- Generator: Adobe Illustrator 26.2.1, SVG Export Plug-In . SVG Version: 6.00 Build 0)  -->
<svg version="1.1" id="Camada_1" xmlns="http://www.w3.org/2000/svg" xmlns:xlink="http://www.w3.org/1999/xlink" x="0px" y="0px"
	 viewBox="0 0 168 88" style="enable-background:new 0 0 168 88;" xml:space="preserve">
<style type="text/css">
	.st0{fill:#009ECF;}
	.st1{fill:#00466E;}
</style>
<g>
	<path class="st0" d="M10.6,34.1c-1.2,2.2-1.7,5.7-1.5,9.9c0.2-2.7,0.7-5.2,1.7-6.8c5.5-9,26.7-4.7,42.9,0.2c0.2,0.1,0.3,0,0.3,0
		c-5.2-2.8-12.3-5.8-17.8-7.1C22.6,27.1,13.4,28.7,10.6,34.1z"/>
	<path class="st1" d="M54.1,35.6c-1.4-1-2.9-1.6-3-1.7c-4.4-2.3-10-5.2-17.8-7.4c-5-1.4-9.6-2-13.5-1.8C13,25.1,7.1,27.9,5.4,32.2
		c-5,13,5.2,28.3,5.7,28.9c-0.9-2.4-1.9-6-2.3-8.5c-1.7-9.7-8-31.5,26.9-23.6c5.7,1.3,12.9,4.5,18.4,7.4c0,0,0,0,0,0
		C54.1,36.3,54.1,35.7,54.1,35.6z"/>
	<g>
		<g>
			<path class="st1" d="M32.1,55c0,1.4-0.2,2.7-0.7,3.7c-0.4,1-1.1,1.9-1.9,2.6c-0.8,0.7-1.8,1.2-3,1.5c-1.2,0.3-2.5,0.5-4,0.5
				c-3.3,0-6.2-0.6-8.7-1.8c0.7-1.7,1.2-3.3,1.6-4.7c0.1-0.2,0.1-0.4,0.2-0.6l2.5,0.6c0.3,0.1,0.6,0.1,1,0.2c0.3,0.1,0.7,0.1,1,0.2
				c0.3,0.1,0.7,0.1,1,0.2c0.3,0,0.6,0.1,0.8,0.1c0.4,0,0.8,0,1.1,0c0.4,0,0.7-0.1,0.9-0.2c0.3-0.1,0.5-0.2,0.7-0.4
				c0.2-0.2,0.2-0.5,0.2-0.8c0-0.4-0.2-0.7-0.6-1c-0.4-0.3-0.8-0.5-1.4-0.7c-0.6-0.2-1.2-0.4-1.8-0.6c-0.7-0.2-1.3-0.4-1.9-0.6
				c-0.8-0.2-1.5-0.6-2.2-1c-0.7-0.4-1.3-0.9-1.8-1.5c-0.5-0.6-0.9-1.3-1.2-2c-0.3-0.7-0.4-1.6-0.4-2.5c0-5.1,3.1-7.7,9.3-7.7
				c2.9,0,5.7,0.6,8.2,1.8l-1.9,5.2c-1.1-0.3-2-0.5-2.6-0.7c-0.6-0.2-1.1-0.3-1.5-0.4c-0.4-0.1-0.7-0.1-0.9-0.2c-0.2,0-0.5,0-0.7,0
				h-0.6c-0.1,0-0.2,0-0.3,0c-0.1,0-0.2,0-0.2,0c-0.5,0-0.9,0.1-1.2,0.2c-0.3,0.2-0.4,0.5-0.4,0.9c0,0.7,0.6,1.3,1.9,1.6
				c3.1,0.7,5.4,1.7,6.9,3.1C31.3,51.4,32.1,53.1,32.1,55"/>
		</g>
	</g>
	<g>
		<g>
			<path class="st1" d="M51.1,45.5c-2-0.7-3.6-1-4.7-1c-0.8,0-1.6,0.2-2.2,0.5c-0.6,0.3-1.2,0.8-1.6,1.4c-0.4,0.6-0.8,1.2-1,2
				c-0.2,0.7-0.3,1.5-0.3,2.3c0,0.9,0.1,1.7,0.4,2.5c0.3,0.8,0.6,1.4,1.1,2c0.5,0.6,1,1,1.6,1.4c0.6,0.3,1.3,0.5,2.1,0.5
				c0.4,0,0.9,0,1.4-0.1v-5.6l6-0.7v10.8c-2.7,1.2-5.5,1.8-8.3,1.8c-3.3,0-6.1-1.2-8.5-3.7c-2.3-2.5-3.5-5.5-3.5-9
				c0-3.4,1.2-6.3,3.6-8.7c2.3-2.4,5.1-3.5,8.4-3.5c3,0,5.6,0.6,8,1.7L51.1,45.5z"/>
		</g>
	</g>
	<g>
		<g>
			<g>
				<path class="st1" d="M60.9,58.4c1.2,0.6,3.2,1.3,5.1,1.3c2.2,0,3.5-0.6,3.5-2.2c0-2.7-9.4-0.7-9.4-6.4c0-3.4,3.2-4.1,5.5-4.1
					h0.2c2,0,4.6,0.3,6,0.9l-0.8,2.3c-1.4-0.6-4.1-0.9-5.3-0.9c-1.3,0-3.1,0.5-3.1,1.8c0,3,9.4,1.1,9.4,6.3c0,3.9-3.5,4.4-5.8,4.4
					c-2.2,0-4.9-0.7-6.2-1.5L60.9,58.4z"/>
			</g>
			<g>
				<rect x="74.6" y="47.2" class="st1" width="2.4" height="14.6"/>
			</g>
			<g>
				<path class="st1" d="M80.7,58.4c1.2,0.6,3.2,1.3,5.1,1.3c2.2,0,3.5-0.6,3.5-2.2c0-2.7-9.4-0.7-9.4-6.4c0-3.4,3.2-4.1,5.5-4.1
					h0.2c2,0,4.6,0.3,6,0.9l-0.8,2.3c-1.4-0.6-4.1-0.9-5.3-0.9c-1.3,0-3.1,0.5-3.1,1.8c0,3,9.4,1.1,9.4,6.3c0,3.9-3.5,4.4-5.8,4.4
					c-2.2,0-4.9-0.7-6.2-1.5L80.7,58.4z"/>
			</g>
			<g>
				<polygon class="st1" points="104.5,49.5 100.1,49.5 100.1,61.8 97.7,61.8 97.7,49.5 93.3,49.5 93.3,47.2 104.5,47.2 				"/>
			</g>
			<g>
				<polygon class="st1" points="116.9,61.8 106.7,61.8 106.7,47.2 116.9,47.2 116.9,49.5 109.1,49.5 109.1,53.6 116.2,53.6 
					116.2,55.9 109.1,55.9 109.1,59.6 116.9,59.6 				"/>
			</g>
			<g>
				<polygon class="st1" points="126.2,61.1 122.1,52.1 122.1,61.8 119.7,61.8 119.7,47.2 122.4,47.2 127.3,57.7 132.1,47.2 
					134.8,47.2 134.8,61.8 132.5,61.8 132.5,52.1 128.3,61.1 				"/>
			</g>
			<g>
				<path class="st1" d="M145.1,47.2l5.4,14.6H148l-1.7-4.5h-5.5l-1.7,4.5h-2.5l5.4-14.6H145.1z M141.6,54.9h3.8l-1.9-5.2
					L141.6,54.9z"/>
			</g>
			<g>
				<path class="st1" d="M153.1,58.4c1.2,0.6,3.2,1.3,5.1,1.3c2.2,0,3.5-0.6,3.5-2.2c0-2.7-9.4-0.7-9.4-6.4c0-3.4,3.2-4.1,5.5-4.1
					h0.2c2,0,4.6,0.3,6,0.9l-0.8,2.3c-1.4-0.6-4.1-0.9-5.3-0.9c-1.3,0-3.1,0.5-3.1,1.8c0,3,9.4,1.1,9.4,6.3c0,3.9-3.5,4.4-5.8,4.4
					c-2.2,0-4.9-0.7-6.2-1.5L153.1,58.4z"/>
			</g>
		</g>
	</g>
</g>
</svg>
