<?xml version="1.0" encoding="utf-8"?>
<!-- Generator: Adobe Illustrator 26.2.1, SVG Export Plug-In . SVG Version: 6.00 Build 0)  -->
<svg version="1.1" id="Camada_1" xmlns="http://www.w3.org/2000/svg" xmlns:xlink="http://www.w3.org/1999/xlink" x="0px" y="0px"
	 viewBox="0 0 163 87" style="enable-background:new 0 0 163 87;" xml:space="preserve">
<style type="text/css">
	.st0{fill:#009ECF;}
	.st1{fill:#00466E;}
</style>
<g>
	<path class="st0" d="M9.3,33.7c-1.1,2.2-1.6,5.7-1.5,9.8c0.2-2.7,0.7-5.1,1.7-6.7c5.4-8.8,26.3-4.6,42.2,0.2c0.2,0.1,0.3,0,0.3,0
		c-5.2-2.8-12.1-5.8-17.5-7C21.1,26.9,12.1,28.5,9.3,33.7z"/>
	<path class="st1" d="M52.1,35.2c-1.4-1-2.8-1.6-3-1.7c-4.4-2.2-9.8-5.1-17.5-7.3c-4.9-1.4-9.4-1.9-13.3-1.7
		c-6.7,0.4-12.5,3.1-14.1,7.3c-5,12.8,5.1,27.8,5.7,28.4C9,58,8,54.5,7.6,52C5.9,42.5-0.2,21,34,28.7c5.6,1.3,12.7,4.4,18.1,7.2
		c0,0,0,0,0,0C52.1,35.9,52.1,35.3,52.1,35.2z"/>
	<g>
		<g>
			<path class="st1" d="M30.5,54.3c0,1.4-0.2,2.6-0.6,3.6c-0.4,1-1,1.9-1.8,2.5c-0.8,0.7-1.8,1.2-2.9,1.5c-1.2,0.3-2.5,0.5-3.9,0.5
				c-3.2,0-6.1-0.6-8.5-1.8c0.7-1.7,1.2-3.2,1.6-4.6c0.1-0.2,0.1-0.4,0.2-0.6l2.5,0.6c0.3,0.1,0.6,0.1,1,0.2c0.3,0.1,0.7,0.1,1,0.2
				c0.3,0.1,0.7,0.1,1,0.2c0.3,0,0.6,0.1,0.8,0.1c0.4,0,0.7,0,1.1,0c0.3,0,0.7-0.1,0.9-0.2c0.3-0.1,0.5-0.2,0.6-0.4
				c0.2-0.2,0.2-0.4,0.2-0.8c0-0.4-0.2-0.7-0.5-1c-0.4-0.3-0.8-0.5-1.4-0.7c-0.5-0.2-1.2-0.4-1.8-0.6c-0.7-0.2-1.3-0.4-1.8-0.6
				c-0.8-0.2-1.5-0.6-2.2-1c-0.7-0.4-1.3-0.9-1.8-1.5c-0.5-0.6-0.9-1.2-1.2-2c-0.3-0.7-0.4-1.5-0.4-2.4c0-5.1,3-7.6,9.1-7.6
				c2.9,0,5.6,0.6,8,1.8l-1.8,5.1c-1.1-0.3-1.9-0.5-2.6-0.7c-0.6-0.2-1.1-0.3-1.5-0.4c-0.4-0.1-0.7-0.1-0.9-0.1c-0.2,0-0.5,0-0.7,0
				h-0.6c-0.1,0-0.2,0-0.3,0c-0.1,0-0.2,0-0.2,0c-0.5,0-0.9,0.1-1.1,0.2c-0.3,0.1-0.4,0.5-0.4,0.9c0,0.7,0.6,1.2,1.8,1.6
				c3,0.7,5.3,1.7,6.8,3C29.7,50.8,30.5,52.4,30.5,54.3"/>
		</g>
	</g>
	<g>
		<g>
			<path class="st1" d="M49.2,45c-2-0.6-3.5-1-4.7-1c-0.8,0-1.6,0.2-2.2,0.5c-0.6,0.3-1.2,0.8-1.6,1.4c-0.4,0.6-0.8,1.2-1,2
				c-0.2,0.7-0.3,1.5-0.3,2.3c0,0.9,0.1,1.7,0.4,2.4c0.2,0.8,0.6,1.4,1,2c0.4,0.6,1,1,1.6,1.3c0.6,0.3,1.3,0.5,2.1,0.5
				c0.4,0,0.9,0,1.4-0.1v-5.5l5.9-0.7v10.6c-2.6,1.2-5.4,1.8-8.2,1.8c-3.3,0-6-1.2-8.3-3.6c-2.3-2.4-3.4-5.4-3.4-8.8
				c0-3.4,1.2-6.2,3.5-8.5c2.3-2.3,5-3.5,8.2-3.5c2.9,0,5.5,0.6,7.9,1.7L49.2,45z"/>
		</g>
	</g>
	<g>
		<g>
			<g>
				<path class="st1" d="M58.8,57.7c1.2,0.6,3.2,1.3,5,1.3c2.2,0,3.4-0.6,3.4-2.2c0-2.7-9.2-0.7-9.2-6.3c0-3.3,3.2-4,5.4-4h0.2
					c1.9,0,4.6,0.3,5.9,0.9l-0.8,2.2c-1.3-0.6-4-0.9-5.2-0.9c-1.3,0-3.1,0.5-3.1,1.8c0,3,9.2,1.1,9.2,6.2c0,3.8-3.4,4.3-5.7,4.3
					c-2.1,0-4.9-0.7-6.1-1.4L58.8,57.7z"/>
			</g>
			<g>
				<rect x="72.2" y="46.6" class="st1" width="2.3" height="14.4"/>
			</g>
			<g>
				<path class="st1" d="M78.3,57.7c1.2,0.6,3.2,1.3,5,1.3c2.2,0,3.4-0.6,3.4-2.2c0-2.7-9.2-0.7-9.2-6.3c0-3.3,3.2-4,5.4-4h0.2
					c1.9,0,4.6,0.3,5.9,0.9l-0.8,2.2c-1.3-0.6-4-0.9-5.2-0.9c-1.3,0-3.1,0.5-3.1,1.8c0,3,9.2,1.1,9.2,6.2c0,3.8-3.4,4.3-5.7,4.3
					c-2.1,0-4.9-0.7-6.1-1.4L78.3,57.7z"/>
			</g>
			<g>
				<polygon class="st1" points="101.7,48.9 97.3,48.9 97.3,61 95,61 95,48.9 90.6,48.9 90.6,46.6 101.7,46.6 				"/>
			</g>
			<g>
				<polygon class="st1" points="113.8,61 103.8,61 103.8,46.6 113.8,46.6 113.8,48.9 106.2,48.9 106.2,52.9 113.2,52.9 113.2,55.2 
					106.2,55.2 106.2,58.8 113.8,58.8 				"/>
			</g>
			<g>
				<polygon class="st1" points="123,60.3 119,51.5 119,61 116.6,61 116.6,46.6 119.3,46.6 124.1,56.9 128.8,46.6 131.5,46.6 
					131.5,61 129.1,61 129.1,51.5 125.1,60.3 				"/>
			</g>
			<g>
				<path class="st1" d="M141.6,46.6l5.3,14.4h-2.5l-1.7-4.4h-5.4l-1.7,4.4h-2.5l5.3-14.4H141.6z M138.2,54.2h3.8l-1.9-5.1
					L138.2,54.2z"/>
			</g>
			<g>
				<path class="st1" d="M149.4,57.7c1.2,0.6,3.2,1.3,5,1.3c2.2,0,3.4-0.6,3.4-2.2c0-2.7-9.2-0.7-9.2-6.3c0-3.3,3.2-4,5.4-4h0.2
					c1.9,0,4.6,0.3,5.9,0.9l-0.8,2.2c-1.3-0.6-4-0.9-5.2-0.9c-1.3,0-3.1,0.5-3.1,1.8c0,3,9.2,1.1,9.2,6.2c0,3.8-3.4,4.3-5.7,4.3
					c-2.1,0-4.9-0.7-6.1-1.4L149.4,57.7z"/>
			</g>
		</g>
	</g>
</g>
</svg>
