<?xml version="1.0" encoding="utf-8"?>
<!-- Generator: Adobe Illustrator 26.2.1, SVG Export Plug-In . SVG Version: 6.00 Build 0)  -->
<svg version="1.1" id="Camada_1" xmlns="http://www.w3.org/2000/svg" xmlns:xlink="http://www.w3.org/1999/xlink" x="0px" y="0px"
	 viewBox="0 0 158 25" style="enable-background:new 0 0 158 25;" xml:space="preserve">
<style type="text/css">
	.st0{fill:#009ECF;}
	.st1{fill:#00466E;}
</style>
<g>
	<path class="st0" d="M44.9,7.7c-0.5,1-0.8,2.7-0.7,4.6c0.1-1.3,0.3-2.4,0.8-3.2C47.5,5,57.4,7,64.9,9.2c0.1,0,0.1,0,0.1,0
		c-2.4-1.3-5.7-2.7-8.3-3.3C50.4,4.4,46.2,5.2,44.9,7.7z"/>
	<path class="st1" d="M65.1,8.4c-0.7-0.5-1.3-0.8-1.4-0.8c-2.1-1.1-4.6-2.4-8.3-3.4c-2.3-0.7-4.5-0.9-6.3-0.8
		c-3.2,0.2-5.9,1.5-6.7,3.5c-2.3,6,2.4,13.1,2.7,13.4c-0.4-1.1-0.9-2.8-1.1-4c-0.8-4.5-3.7-14.7,12.5-11c2.6,0.6,6,2.1,8.5,3.4
		c0,0,0,0,0,0C65.1,8.7,65.1,8.4,65.1,8.4z"/>
	<g>
		<g>
			<path class="st1" d="M54.9,17.4c0,0.7-0.1,1.2-0.3,1.7c-0.2,0.5-0.5,0.9-0.9,1.2c-0.4,0.3-0.8,0.6-1.4,0.7
				c-0.5,0.2-1.2,0.2-1.9,0.2c-1.5,0-2.9-0.3-4-0.8c0.3-0.8,0.6-1.5,0.8-2.2c0-0.1,0.1-0.2,0.1-0.3l1.2,0.3c0.1,0,0.3,0.1,0.5,0.1
				c0.2,0,0.3,0.1,0.5,0.1c0.2,0,0.3,0.1,0.5,0.1c0.1,0,0.3,0,0.4,0c0.2,0,0.3,0,0.5,0c0.2,0,0.3,0,0.4-0.1c0.1,0,0.2-0.1,0.3-0.2
				c0.1-0.1,0.1-0.2,0.1-0.4c0-0.2-0.1-0.3-0.3-0.5c-0.2-0.1-0.4-0.2-0.6-0.3c-0.3-0.1-0.5-0.2-0.9-0.3c-0.3-0.1-0.6-0.2-0.9-0.3
				c-0.4-0.1-0.7-0.3-1-0.5c-0.3-0.2-0.6-0.4-0.8-0.7c-0.2-0.3-0.4-0.6-0.5-0.9c-0.1-0.3-0.2-0.7-0.2-1.2c0-2.4,1.4-3.6,4.3-3.6
				c1.4,0,2.6,0.3,3.8,0.8l-0.9,2.4c-0.5-0.1-0.9-0.2-1.2-0.3c-0.3-0.1-0.5-0.1-0.7-0.2c-0.2,0-0.3-0.1-0.4-0.1c-0.1,0-0.2,0-0.3,0
				h-0.3c-0.1,0-0.1,0-0.1,0c0,0-0.1,0-0.1,0c-0.2,0-0.4,0-0.5,0.1c-0.1,0.1-0.2,0.2-0.2,0.4c0,0.3,0.3,0.6,0.9,0.8
				c1.4,0.3,2.5,0.8,3.2,1.4C54.5,15.7,54.9,16.5,54.9,17.4"/>
		</g>
	</g>
	<g>
		<g>
			<path class="st1" d="M63.7,13c-0.9-0.3-1.7-0.5-2.2-0.5c-0.4,0-0.7,0.1-1,0.2c-0.3,0.2-0.6,0.4-0.8,0.6c-0.2,0.3-0.4,0.6-0.5,0.9
				c-0.1,0.3-0.2,0.7-0.2,1.1c0,0.4,0.1,0.8,0.2,1.2c0.1,0.4,0.3,0.7,0.5,0.9c0.2,0.3,0.5,0.5,0.8,0.6c0.3,0.2,0.6,0.2,1,0.2
				c0.2,0,0.4,0,0.6,0v-2.6l2.8-0.3v5c-1.3,0.6-2.5,0.8-3.9,0.8c-1.5,0-2.9-0.6-3.9-1.7c-1.1-1.1-1.6-2.5-1.6-4.2
				c0-1.6,0.6-2.9,1.7-4c1.1-1.1,2.4-1.6,3.9-1.6c1.4,0,2.6,0.3,3.7,0.8L63.7,13z"/>
		</g>
	</g>
	<g>
		<g>
			<g>
				<path class="st1" d="M68.3,19c0.5,0.3,1.5,0.6,2.4,0.6c1,0,1.6-0.3,1.6-1c0-1.3-4.4-0.3-4.4-3c0-1.6,1.5-1.9,2.6-1.9h0.1
					c0.9,0,2.2,0.2,2.8,0.4l-0.4,1.1c-0.6-0.3-1.9-0.4-2.5-0.4c-0.6,0-1.5,0.2-1.5,0.8c0,1.4,4.4,0.5,4.4,2.9c0,1.8-1.6,2.1-2.7,2.1
					c-1,0-2.3-0.3-2.9-0.7L68.3,19z"/>
			</g>
			<g>
				<rect x="74.6" y="13.8" class="st1" width="1.1" height="6.8"/>
			</g>
			<g>
				<path class="st1" d="M77.5,19c0.5,0.3,1.5,0.6,2.4,0.6c1,0,1.6-0.3,1.6-1c0-1.3-4.4-0.3-4.4-3c0-1.6,1.5-1.9,2.6-1.9h0.1
					c0.9,0,2.2,0.2,2.8,0.4l-0.4,1.1c-0.6-0.3-1.9-0.4-2.5-0.4c-0.6,0-1.5,0.2-1.5,0.8c0,1.4,4.4,0.5,4.4,2.9c0,1.8-1.6,2.1-2.7,2.1
					c-1,0-2.3-0.3-2.9-0.7L77.5,19z"/>
			</g>
			<g>
				<polygon class="st1" points="88.5,14.8 86.5,14.8 86.5,20.6 85.4,20.6 85.4,14.8 83.3,14.8 83.3,13.8 88.5,13.8 				"/>
			</g>
			<g>
				<polygon class="st1" points="94.3,20.6 89.6,20.6 89.6,13.8 94.3,13.8 94.3,14.8 90.7,14.8 90.7,16.7 94,16.7 94,17.8 
					90.7,17.8 90.7,19.5 94.3,19.5 				"/>
			</g>
			<g>
				<polygon class="st1" points="98.6,20.2 96.7,16 96.7,20.6 95.6,20.6 95.6,13.8 96.9,13.8 99.1,18.6 101.4,13.8 102.6,13.8 
					102.6,20.6 101.5,20.6 101.5,16 99.6,20.2 				"/>
			</g>
			<g>
				<path class="st1" d="M107.4,13.8l2.5,6.8h-1.2l-0.8-2.1h-2.6l-0.8,2.1h-1.2l2.5-6.8H107.4z M105.8,17.4h1.8l-0.9-2.4L105.8,17.4
					z"/>
			</g>
			<g>
				<path class="st1" d="M111.1,19c0.5,0.3,1.5,0.6,2.4,0.6c1,0,1.6-0.3,1.6-1c0-1.3-4.4-0.3-4.4-3c0-1.6,1.5-1.9,2.6-1.9h0.1
					c0.9,0,2.2,0.2,2.8,0.4l-0.4,1.1c-0.6-0.3-1.9-0.4-2.5-0.4c-0.6,0-1.5,0.2-1.5,0.8c0,1.4,4.4,0.5,4.4,2.9c0,1.8-1.6,2.1-2.7,2.1
					c-1,0-2.3-0.3-2.9-0.7L111.1,19z"/>
			</g>
		</g>
	</g>
</g>
</svg>
